<?xml version="1.0" standalone="no"?>
<!DOCTYPE svg PUBLIC "-//W3C//DTD SVG 20010904//EN"
 "http://www.w3.org/TR/2001/REC-SVG-20010904/DTD/svg10.dtd">
<svg version="1.0" xmlns="http://www.w3.org/2000/svg"
 width="700.000000pt" height="700.000000pt" viewBox="0 0 700.000000 700.000000"
 preserveAspectRatio="xMidYMid meet">
<metadata>
Created by potrace 1.14, written by Peter Selinger 2001-2017
</metadata>
<g transform="translate(0.000000,700.000000) scale(0.100000,-0.100000)"
fill="#000000" stroke="none">
<path d="M3467 6984 c-1 -1 -69 -4 -152 -8 -82 -3 -160 -8 -172 -10 -12 -3
-46 -7 -75 -10 -29 -4 -62 -8 -73 -10 -11 -2 -40 -7 -65 -11 -71 -11 -243 -46
-251 -51 -4 -2 -27 -8 -51 -13 -80 -16 -282 -82 -423 -138 -859 -343 -1559
-1032 -1918 -1888 -76 -182 -167 -472 -192 -610 -10 -57 -16 -90 -25 -130 -5
-22 -12 -62 -15 -90 -3 -27 -8 -61 -10 -75 -3 -14 -8 -56 -11 -95 -3 -38 -7
-88 -9 -110 -7 -69 -7 -376 0 -470 47 -707 316 -1396 762 -1948 110 -136 293
-328 403 -422 30 -26 69 -59 85 -74 89 -77 286 -218 415 -296 297 -180 633
-321 953 -400 189 -46 368 -77 512 -90 33 -3 83 -8 110 -10 53 -5 378 -6 455
-1 66 4 196 16 217 20 10 2 43 7 73 12 30 4 57 8 60 9 3 0 28 5 55 10 28 5 52
9 55 10 3 1 25 5 50 9 125 21 375 98 563 172 615 244 1160 676 1557 1233 179
252 337 562 444 869 25 73 48 143 50 155 3 12 18 74 35 137 29 114 65 303 75
390 5 44 13 126 21 225 7 78 7 372 0 455 -3 41 -8 95 -10 120 -24 288 -143
755 -257 1010 -55 120 -145 302 -180 359 -21 34 -38 65 -38 67 0 7 -97 153
-169 254 -108 152 -234 296 -392 450 -76 74 -144 140 -151 145 -7 6 -40 33
-74 60 -91 75 -135 109 -153 119 -9 5 -18 12 -21 16 -11 14 -243 161 -337 214
-257 143 -557 262 -833 332 -67 17 -105 25 -138 30 -20 3 -40 8 -43 9 -7 5
-183 33 -250 40 -30 3 -63 8 -74 10 -25 5 -383 22 -388 19z m-1132 -1374 c39
0 41 -2 64 -58 14 -31 49 -108 78 -170 29 -62 53 -114 53 -116 0 -2 22 -50 49
-107 27 -57 97 -210 156 -339 59 -129 111 -239 115 -243 3 -4 7 224 7 508 0
283 2 518 5 521 7 6 477 9 483 3 2 -3 47 -99 100 -214 54 -116 110 -237 125
-270 15 -33 83 -179 150 -325 67 -146 135 -292 150 -325 15 -33 41 -89 58
-125 16 -36 57 -123 90 -195 67 -147 105 -228 152 -330 18 -38 43 -94 56 -123
23 -51 37 -81 138 -295 25 -54 46 -100 46 -102 0 -2 21 -47 46 -102 40 -85
425 -918 482 -1043 11 -25 48 -103 81 -174 l60 -129 -26 -46 c-15 -25 -46 -79
-71 -120 -24 -41 -53 -90 -64 -110 -76 -138 -103 -181 -111 -178 -4 1 -87 173
-183 382 -96 209 -186 405 -201 435 -14 30 -50 109 -80 175 -31 66 -71 154
-90 195 -36 78 -251 543 -296 640 -13 30 -68 147 -120 260 -52 113 -178 386
-280 607 -102 221 -192 413 -199 427 -11 22 -13 -56 -12 -502 l1 -527 25 -55
c14 -30 41 -89 61 -130 19 -41 46 -100 60 -130 14 -30 46 -99 71 -153 25 -54
46 -100 46 -102 0 -2 22 -50 49 -107 54 -117 77 -165 168 -363 36 -77 77 -167
93 -200 15 -33 63 -136 105 -229 l78 -170 -18 -30 c-10 -17 -28 -49 -40 -71
-12 -22 -60 -105 -107 -185 -46 -80 -89 -153 -95 -163 -11 -21 -3 -35 -83 138
-24 50 -80 171 -125 270 -86 189 -413 895 -485 1050 -23 50 -62 135 -87 190
-25 55 -52 105 -59 111 -8 6 -42 10 -79 8 -64 -3 -65 -2 -66 24 0 15 -2 92 -3
172 l-2 145 -41 85 c-62 128 -133 281 -133 285 0 2 -28 64 -63 137 -35 73
-103 221 -152 330 l-90 196 -5 -686 -5 -687 -240 0 -240 0 -1 1217 -1 1217 41
3 c34 2 242 2 411 -2z"/>
</g>
</svg>
